HIERARCHY
ROOT Hips
{
	OFFSET 0.000000 88.474243 0.000000
	CHANNELS 6 Xposition Yposition Zposition Zrotation Yrotation Xrotation 
	JOINT Hips_Spine
	{
		OFFSET 0.000000 0.000000 0.000000
		CHANNELS 3 Zrotation Yrotation Xrotation
		JOINT Spine
		{
			OFFSET 0.005100 8.711998 -0.691000
			CHANNELS 3 Zrotation Yrotation Xrotation
			JOINT Spine1
			{
				OFFSET -0.009200 8.660301 -1.275000
				CHANNELS 3 Zrotation Yrotation Xrotation
				JOINT Spine2
				{
					OFFSET 0.006300 9.852501 -1.857000
					CHANNELS 3 Zrotation Yrotation Xrotation
					JOINT Spine2_Neck
					{
						OFFSET 0.000000 0.000000 0.000000
						CHANNELS 3 Zrotation Yrotation Xrotation
						JOINT Neck
						{
							OFFSET 0.016300 11.420799 -0.263300
							CHANNELS 3 Zrotation Yrotation Xrotation
							End Site #name: Head
							{
								OFFSET -0.019200 9.262405 2.362500
							}
						}
					}
					JOINT Spine2_LeftShoulder
					{
						OFFSET 0.000000 0.000000 0.000000
						CHANNELS 3 Zrotation Yrotation Xrotation
						JOINT LeftShoulder
						{
							OFFSET 5.616900 6.732201 -0.345700
							CHANNELS 3 Zrotation Yrotation Xrotation
							JOINT LeftArm
							{
								OFFSET 10.664888 -0.183372 -2.440700
								CHANNELS 3 Zrotation Yrotation Xrotation
								JOINT LeftForeArm
								{
									OFFSET 27.459126 0.000000 0.000000
									CHANNELS 3 Zrotation Yrotation Xrotation
									End Site #name: LeftHand
									{
										OFFSET 21.306858 0.000000 0.000000
									}
								}
							}
						}
					}
					JOINT Spine2_RightShoulder
					{
						OFFSET 0.000000 0.000000 0.000000
						CHANNELS 3 Zrotation Yrotation Xrotation
						JOINT RightShoulder
						{
							OFFSET -5.580300 6.737503 -0.344400
							CHANNELS 3 Zrotation Yrotation Xrotation
							JOINT RightArm
							{
								OFFSET -10.679335 -0.188484 -2.383900
								CHANNELS 3 Zrotation Yrotation Xrotation
								JOINT RightForeArm
								{
									OFFSET -27.503529 0.000000 0.000000
									CHANNELS 3 Zrotation Yrotation Xrotation
									End Site #name: RightHand
									{
										OFFSET -21.306808 0.000000 0.000000
									}
								}
							}
						}
					}
				}
			}
		}
	}
	JOINT Hips_LeftUpLeg
	{
		OFFSET 0.000000 0.000000 0.000000
		CHANNELS 3 Zrotation Yrotation Xrotation
		JOINT LeftUpLeg
		{
			OFFSET 6.857700 -6.739601 0.312100
			CHANNELS 3 Zrotation Yrotation Xrotation
			JOINT LeftLeg
			{
				OFFSET -0.367590 -34.731552 -4.572400
				CHANNELS 3 Zrotation Yrotation Xrotation
				End Site #name: LeftFoot
				{
					OFFSET 0.367590 -34.656704 -6.067400
				}
			}
		}
	}
	JOINT Hips_RightUpLeg
	{
		OFFSET 0.000000 0.000000 0.000000
		CHANNELS 3 Zrotation Yrotation Xrotation
		JOINT RightUpLeg
		{
			OFFSET -6.876100 -6.733299 0.301000
			CHANNELS 3 Zrotation Yrotation Xrotation
			JOINT RightLeg
			{
				OFFSET 0.347353 -34.795158 -4.515900
				CHANNELS 3 Zrotation Yrotation Xrotation
				End Site #name: RightFoot
				{
					OFFSET -0.347353 -34.589367 -6.070300
				}
			}
		}
	}
}
MOTION
Frames: 18
Frame Time: 0.041667
0.000000 -0.000000 0.000000 4.400487 -13.560959 -6.487046 0.000000 0.000000 0.000000 -9.145273 -3.349246 6.832124 3.883041 -0.855508 3.921313 0.000000 0.000000 0.000000 3.856655 -0.752079 3.971244 -1.666480 3.204378 -23.933471 3.856655 -0.752079 3.971244 -0.322934 -8.093730 1.012265 -48.612183 -12.259689 31.230393 -179.999974 -76.261515 -179.999999 3.856655 -0.752079 3.971244 16.564946 1.471413 1.169687 37.645014 -18.827075 32.989444 -0.000006 74.346500 -0.000001 0.000000 0.000000 0.000000 -8.634158 9.396863 -30.720703 3.158234 9.299396 20.883927 0.000000 0.000000 0.000000 -0.976057 1.073549 -15.164487 -6.008525 -1.813592 50.719560 
-0.133540 -0.343628 0.687320 4.552773 -12.028047 -5.608084 0.000000 0.000000 0.000000 -10.486618 -3.850623 7.262542 4.483981 -0.996577 4.009213 0.000000 0.000000 0.000000 4.452851 -0.875611 4.075990 -2.565684 2.848008 -23.549948 4.452851 -0.875611 4.075990 0.648145 -7.868544 0.894711 -52.452405 -11.459028 31.823354 179.999985 -80.246719 -179.999956 4.452851 -0.875611 4.075990 16.417838 -0.474319 0.702814 37.901197 -16.163595 33.319578 0.000002 74.927940 0.000006 0.000000 0.000000 0.000000 -9.701676 10.124542 -32.385659 3.371864 9.368763 23.069062 0.000000 0.000000 0.000000 -1.770178 1.246008 -19.989947 -5.277994 -1.292376 55.893350 
-0.287542 -0.694244 0.957223 5.469598 -10.582799 -4.935662 0.000000 0.000000 0.000000 -12.564376 -4.264833 8.080478 5.082978 -1.132507 3.842463 0.000000 0.000000 0.000000 5.050113 -0.990638 3.930255 -2.277191 2.951733 -21.814077 5.050113 -0.990638 3.930255 0.116931 -7.895282 0.950505 -55.904862 -8.994757 31.215844 -179.999994 -85.080711 179.999750 5.050113 -0.990638 3.930255 17.161297 -2.175140 0.308150 37.608483 -12.795338 33.760257 -0.000020 75.178656 -0.000026 0.000000 0.000000 0.000000 -11.165375 9.770278 -33.541396 3.307766 9.516305 23.892741 0.000000 0.000000 0.000000 -3.690818 2.070211 -24.705866 -5.620072 -1.193793 59.584125 
-0.512869 -0.921692 0.913399 7.092808 -9.376999 -4.205653 0.000000 0.000000 0.000000 -14.923058 -4.590755 8.854398 5.415642 -1.229637 3.488987 0.000000 0.000000 0.000000 5.383785 -1.072797 3.595244 -0.988018 3.268476 -20.025923 5.383785 -1.072797 3.595244 -1.613795 -8.201649 1.158831 -58.536188 -4.446088 28.716604 -179.954086 -89.780380 179.954072 5.383785 -1.072797 3.595244 18.487537 -3.481301 0.000412 37.212853 -8.663715 34.471385 0.000021 75.256370 0.000018 0.000000 0.000000 0.000000 -13.003399 8.730193 -34.200708 2.994101 9.643660 23.127298 0.000000 0.000000 0.000000 -6.749432 3.529927 -29.052396 -7.636652 -1.741965 60.833789 
-0.849778 -1.044632 0.648873 8.254430 -8.507103 -3.203853 0.000000 0.000000 0.000000 -16.340950 -4.954169 9.176672 5.268546 -1.277705 3.187680 0.000000 0.000000 0.000000 5.238245 -1.119782 3.300842 0.616045 3.564664 -18.538265 5.238245 -1.119782 3.300842 -3.923808 -8.443171 1.422476 -60.188214 1.778716 24.680554 -0.000172 -86.789131 0.000113 5.238245 -1.119782 3.300842 19.535353 -4.159996 -0.166603 37.400097 -4.002154 35.521222 0.000086 75.403089 0.000070 0.000000 0.000000 0.000000 -14.270790 8.211277 -35.088671 2.728863 9.704113 22.206974 0.000000 0.000000 0.000000 -9.511066 4.857939 -32.360593 -9.163293 -2.207896 59.299739 
-1.317888 -1.102318 0.157811 8.118647 -7.650729 -2.205664 0.000000 0.000000 0.000000 -15.968283 -5.289903 9.136626 4.642745 -1.271413 3.073808 0.000000 0.000000 0.000000 4.613446 -1.125682 3.177766 1.895386 3.669668 -16.325579 4.613446 -1.125682 3.177766 -6.017345 -8.173359 1.600134 -60.709276 8.372569 20.848171 -0.000016 -85.462400 0.000009 4.613446 -1.125682 3.177766 19.674643 -3.892049 -0.097244 38.308436 0.388094 36.386527 -0.000100 76.117670 -0.000097 0.000000 0.000000 0.000000 -14.413079 8.524774 -36.116653 2.703799 9.679886 21.569626 0.000000 0.000000 0.000000 -10.822080 4.944684 -33.704029 -8.553397 -1.930871 55.270612 
-1.995631 -1.243942 -0.593429 6.967459 -6.139216 -1.627120 0.000000 0.000000 0.000000 -13.992356 -5.226575 9.105200 3.763051 -1.186841 3.129911 0.000000 0.000000 0.000000 3.735047 -1.059538 3.211196 2.326704 3.332667 -12.256611 3.735047 -1.059538 3.211196 -7.282368 -7.233661 1.596750 -59.402971 13.456970 19.591039 0.000024 -86.264579 -0.000007 3.735047 -1.059538 3.211196 18.859901 -2.639370 0.216510 39.436368 3.787313 36.405475 -0.000116 77.752442 -0.000099 0.000000 0.000000 0.000000 -13.693875 9.025008 -37.225611 3.110376 9.529996 21.796702 0.000000 0.000000 0.000000 -10.522601 3.319267 -33.309587 -4.246722 1.099237 51.285293 
-2.961843 -1.237182 -1.563374 5.411595 -3.696258 -1.577503 0.000000 0.000000 0.000000 -11.090115 -4.341563 9.285123 2.876938 -0.984255 3.332546 0.000000 0.000000 0.000000 2.852643 -0.876769 3.384397 1.647405 2.495566 -6.447737 2.852643 -0.876769 3.384397 -7.730632 -5.771223 1.423356 -55.382647 15.249317 22.195775 0.005610 -88.467350 -0.005603 2.852643 -0.876769 3.384397 17.293519 -0.890045 0.621698 40.400078 6.108706 35.757170 -0.000088 80.062706 -0.000107 0.000000 0.000000 0.000000 -12.315200 9.390589 -37.643498 3.500510 9.284899 21.647680 0.000000 0.000000 0.000000 -9.283774 0.607279 -31.685012 0.376360 4.743624 47.927647 
-4.179708 -0.997322 -2.696109 3.670881 -0.778549 -1.958464 0.000000 0.000000 0.000000 -7.663769 -2.459007 9.649436 2.062289 -0.636750 3.720660 0.000000 0.000000 0.000000 2.046546 -0.552468 3.744186 0.261591 1.438515 -0.229122 2.046546 -0.552468 3.744186 -7.927475 -4.025221 1.164404 -48.978850 13.013565 27.383847 -179.997462 -88.691005 179.997462 2.046546 -0.552468 3.744186 15.074831 0.689042 0.921094 41.173890 7.760389 35.477222 0.000354 82.499587 0.000363 0.000000 0.000000 0.000000 -10.149708 10.118068 -37.606495 3.584019 9.016242 21.286265 0.000000 0.000000 0.000000 -7.133610 -2.120440 -29.708018 2.442866 6.589843 45.090614 
-5.444465 -0.668045 -3.890074 1.841267 1.903223 -2.738746 0.000000 0.000000 0.000000 -3.946448 0.121939 10.197247 1.255484 -0.174909 4.276931 0.000000 0.000000 0.000000 1.254006 -0.121306 4.281153 -0.939155 0.410200 4.875892 1.254006 -0.121306 4.281153 -8.252528 -2.275740 0.904431 -41.853754 8.128568 32.367520 179.999376 -85.481780 -179.999457 1.254006 -0.121306 4.281153 12.433629 1.873453 1.054695 41.447450 9.202453 36.435772 0.000353 84.736945 0.000343 0.000000 0.000000 0.000000 -7.341090 11.355938 -37.345805 3.670943 8.811838 21.430310 0.000000 0.000000 0.000000 -3.997252 -4.066680 -28.314982 1.528425 6.383570 43.171362 
-6.503048 -0.448685 -5.002398 0.387747 3.933671 -3.830482 0.000000 0.000000 0.000000 -0.594516 2.651655 10.958135 0.436068 0.295465 4.809168 0.000000 0.000000 0.000000 0.451284 0.313732 4.807528 -1.436008 -0.483019 8.082292 0.451284 0.313732 4.807528 -8.407295 -0.858903 0.691760 -35.403169 3.289542 35.323730 -179.999549 -81.867675 179.999522 0.451284 0.313732 4.807528 9.981506 2.957475 1.118794 40.466906 10.708623 38.711104 0.000944 86.674883 0.000951 0.000000 0.000000 0.000000 -4.839854 11.951744 -36.868696 3.945653 7.844240 23.034493 0.000000 0.000000 0.000000 -1.356270 -4.868219 -27.108580 -0.286106 5.593222 41.505840 
-7.248478 -0.309715 -5.939748 -0.044385 5.379768 -4.898835 0.000000 0.000000 0.000000 1.461509 4.392376 11.747789 -0.267434 0.641610 5.048125 0.000000 0.000000 0.000000 -0.239592 0.630838 5.050613 -1.548605 -1.092776 9.538219 -0.239592 0.630838 5.050613 -7.944091 0.026176 0.540842 -30.158963 0.352721 36.257262 -179.999845 -77.895387 179.999806 -0.239592 0.630838 5.050613 8.187696 4.136465 1.195223 38.038891 12.498598 41.939301 -0.000447 88.145141 -0.000481 0.000000 0.000000 0.000000 -3.797142 10.947210 -36.284778 3.302929 4.217288 27.402690 0.000000 0.000000 0.000000 -0.341926 -4.739952 -26.204258 -1.619263 4.585374 40.538063 
-7.725692 -0.124916 -6.685081 0.463973 6.567323 -5.590377 0.000000 0.000000 0.000000 2.099986 5.157412 12.230346 -0.684377 0.800947 4.875032 0.000000 0.000000 0.000000 -0.652440 0.775719 4.883211 -1.954050 -1.338325 9.806732 -0.652440 0.775719 4.883211 -7.009992 0.490669 0.442428 -26.023097 -0.737987 36.369814 179.999997 -73.771380 -179.999996 -0.652440 0.775719 4.883211 6.757067 5.049693 1.228496 35.400306 14.644036 45.805382 0.002108 88.946050 0.002129 0.000000 0.000000 0.000000 -3.835764 8.729944 -35.037148 3.477625 3.433845 33.540104 0.000000 0.000000 0.000000 -0.925970 -4.061988 -25.551342 -2.332077 3.190100 39.893257 
-8.010219 0.093880 -7.274901 1.074920 7.703922 -5.790146 0.000000 0.000000 0.000000 2.202827 5.304878 12.178050 -0.799577 0.831754 4.390260 0.000000 0.000000 0.000000 -0.770750 0.803323 4.401033 -2.846694 -1.370859 9.303909 -0.770750 0.803323 4.401033 -6.114072 0.785487 0.376874 -22.503974 -1.594899 36.615844 179.999977 -69.714610 -179.999967 -0.770750 0.803323 4.401033 5.131874 5.128960 1.123153 34.234380 16.607943 49.930192 0.008175 89.205459 0.008117 0.000000 0.000000 0.000000 -4.196719 6.310499 -33.336028 4.203493 3.861770 39.667053 0.000000 0.000000 0.000000 -1.889181 -3.148951 -25.193687 -3.030949 1.431528 39.188992 
-8.133590 0.244278 -7.780345 0.949762 8.770602 -5.605457 0.000000 0.000000 0.000000 2.813600 5.287221 11.553806 -0.769235 0.835804 3.764698 0.000000 0.000000 0.000000 -0.746116 0.806412 3.776454 -3.754425 -1.429479 8.207661 -0.746116 0.806412 3.776454 -5.400597 1.031748 0.327442 -19.366452 -3.721445 36.864055 179.999992 -65.830328 -179.999994 -0.746116 0.806412 3.776454 3.505102 4.262542 0.903576 34.720552 17.444270 53.514378 0.033180 89.424709 0.033148 0.000000 0.000000 0.000000 -4.473142 4.625099 -30.894392 4.862767 3.687024 44.562206 0.000000 0.000000 0.000000 -2.083954 -2.332097 -25.253271 -3.910808 -0.324267 38.420486 
-8.102191 0.312180 -8.308822 0.029270 9.625086 -5.168871 0.000000 0.000000 0.000000 4.083571 5.229016 10.513934 -0.712682 0.841269 3.102258 0.000000 0.000000 0.000000 -0.695078 0.809965 3.115136 -4.164611 -1.581309 6.552556 -0.695078 0.809965 3.115136 -4.597568 1.242755 0.281440 -16.840003 -7.163980 36.501487 -179.999989 -62.079843 179.999971 -0.695078 0.809965 3.115136 2.709655 2.928227 0.695600 35.484931 16.773565 55.662367 -1.387315 89.962207 -1.387382 0.000000 0.000000 0.000000 -4.107433 3.712528 -27.920306 4.903878 2.644621 47.559228 0.000000 0.000000 0.000000 -1.465573 -1.827858 -25.755983 -4.580225 -1.690571 37.570852 
-7.955753 0.384163 -8.968599 -1.182186 10.142371 -4.562022 0.000000 0.000000 0.000000 5.318634 4.856197 9.338472 -0.592760 0.791514 2.462753 0.000000 0.000000 0.000000 -0.580513 0.761141 2.475281 -4.015463 -1.700948 4.202667 -0.580513 0.761141 2.475281 -3.440354 1.519514 0.224783 -15.123965 -10.864078 35.163873 179.999955 -58.388359 -179.999943 -0.580513 0.761141 2.475281 3.220659 1.737081 0.585802 35.547351 15.117120 56.104427 -179.973876 89.385328 -179.973925 0.000000 0.000000 0.000000 -3.229050 3.156844 -24.580059 4.143487 1.349922 48.148239 0.000000 0.000000 0.000000 -0.628113 -1.508026 -26.530352 -4.756775 -2.560375 36.401392 
-7.774970 0.544594 -9.863237 -2.184255 10.302279 -3.835726 0.000000 0.000000 0.000000 5.797512 3.846223 8.308548 -0.342867 0.633680 1.937480 0.000000 0.000000 0.000000 -0.335888 0.609534 1.946416 -3.487357 -1.667680 0.990894 -0.335888 0.609534 1.946416 -1.813728 2.030877 0.149328 -14.288077 -13.814815 32.836482 179.999980 -54.836713 -179.999989 -0.335888 0.609534 1.946416 4.795504 1.007807 0.571561 35.267544 13.258372 55.091438 -179.970538 89.129666 -179.970612 0.000000 0.000000 0.000000 -2.441724 2.708140 -20.989547 2.603684 0.122547 45.812908 0.000000 0.000000 0.000000 -0.083430 -1.020321 -27.354284 -4.588818 -3.170967 34.671598 
